<svg width="1728" height="1117" viewBox="0 0 1728 1117" fill="none" xmlns="http://www.w3.org/2000/svg">
<g clip-path="url(#clip0_127_1229)">
<rect width="1728" height="1117" fill="url(#paint0_linear_127_1229)"/>
<rect width="1728" height="281" fill="url(#paint1_linear_127_1229)"/>
<path d="M688.596 569.518L809.664 543.607C811.423 543.23 813.251 543.805 814.479 545.12C816.912 547.728 816.001 551.962 812.71 553.338L786 564.5L736.535 582.456C728.045 585.538 727.668 597.406 735.945 601.02L790.086 624.664C791.348 625.215 792.711 625.5 794.088 625.5H1029.22C1029.74 625.5 1030.26 625.459 1030.77 625.378L1414.81 564.845C1416.25 564.618 1417.73 564.708 1419.13 565.11L1482.43 583.264C1484.12 583.746 1485.89 583.779 1487.59 583.359L1500.99 580.048C1512.92 577.097 1518.62 594.111 1507.32 598.949L1480.81 610.295C1478.98 611.08 1476.95 611.299 1474.99 610.923L1404.02 597.292C1403.01 597.099 1401.98 597.061 1400.96 597.182L1030 641L762.842 648.407C760.673 648.467 758.543 647.82 756.774 646.564L689.4 598.705C687.833 597.592 686.62 596.051 685.907 594.266L681.404 583.011C679.102 577.256 682.536 570.815 688.596 569.518Z" fill="#084A87"/>
<path d="M386.987 621.631L602.475 548.021C603.488 547.675 604.539 547.45 605.605 547.353L794.5 530L629.709 563.156C628.574 563.384 627.474 563.758 626.435 564.266L445.118 653.018C435.67 657.642 434.9 670.813 443.744 676.507L526.944 730.068C529.124 731.472 531.662 732.218 534.255 732.218H850.676C851.326 732.218 851.976 732.171 852.62 732.077L1419.5 649.611L1607.88 627.134C1608.62 627.045 1609.36 626.893 1610.08 626.681L1714.5 596L1561.58 660.62C1560.2 661.203 1558.74 661.552 1557.24 661.654L1354.64 675.488L851.653 763.071L492.501 777.751C488.622 777.909 484.862 776.391 482.181 773.583L390.872 677.969C389.317 676.341 388.194 674.35 387.605 672.178L378.317 637.95C376.452 631.075 380.246 623.933 386.987 621.631Z" fill="#084A87"/>
<path d="M1739.5 315C1739.5 342.614 1966 462 1283 462C416.5 486 774.5 358.114 774.5 330.5C774.5 302.886 1324.39 297.501 1352 297.501C1379.61 297.501 1755 225 1739.5 315Z" fill="url(#paint2_linear_127_1229)"/>
<path d="M1503.75 443.356L1507.33 444.732C1509.68 445.633 1511.54 442.632 1509.69 440.927C1509.23 440.496 1508.96 439.888 1508.96 439.251V439.077C1508.96 437.638 1510.1 436.456 1511.54 436.401L1554.37 434.75L1642.22 426.467C1645.2 426.186 1647.69 424.085 1648.46 421.198L1649.06 418.952C1649.9 415.842 1647.73 412.728 1644.53 412.429L1629.99 411.078C1625.99 410.706 1625.82 404.918 1629.79 404.313C1630.07 404.271 1630.35 404.263 1630.62 404.288L1661.84 407.176C1662.37 407.225 1662.91 407.231 1663.44 407.193L1667.25 406.92C1677.82 406.163 1678.98 391.088 1668.64 388.731C1667.97 388.577 1667.28 388.5 1666.59 388.5H1636.31C1635.71 388.5 1635.42 387.78 1635.84 387.358C1636.28 386.909 1635.92 386.148 1635.29 386.22L1598.27 390.5H1652.51C1652.94 390.5 1653.37 390.551 1653.79 390.651C1660.13 392.17 1659.03 401.5 1652.51 401.5H1628.21L1616.55 403.033C1610.47 403.831 1610.73 412.707 1616.84 413.159C1621.23 413.484 1623.17 418.854 1619.99 421.907L1617.49 424.309C1616.36 425.401 1614.87 426.053 1613.3 426.151L1530.91 431.25L1505.36 433.436C1500.42 433.859 1498.84 440.328 1503.04 442.978L1503.22 443.092C1503.39 443.197 1503.56 443.286 1503.75 443.356Z" fill="#2E6BA3" fill-opacity="0.43"/>
<path d="M1455.34 476.427L1458.72 474.62C1460.94 473.436 1463.16 476.184 1461.54 478.103C1461.13 478.59 1460.94 479.225 1461.02 479.857L1461.04 480.03C1461.22 481.458 1462.49 482.49 1463.93 482.368L1506.63 478.715L1594.84 476.081C1597.83 475.992 1600.56 477.769 1601.68 480.538L1602.56 482.693C1603.77 485.676 1602.01 489.034 1598.86 489.726L1584.6 492.863C1580.68 493.727 1581.22 499.492 1585.24 499.6C1585.52 499.608 1585.8 499.582 1586.07 499.522L1616.69 492.8C1617.21 492.686 1617.74 492.614 1618.28 492.586L1622.09 492.386C1632.67 491.831 1635.68 506.648 1625.72 510.264C1625.07 510.499 1624.4 510.661 1623.71 510.746L1593.66 514.487C1593.07 514.561 1592.87 515.312 1593.33 515.679C1593.83 516.069 1593.56 516.87 1592.93 516.876L1555.67 517.201L1609.49 510.501C1609.92 510.448 1610.34 510.344 1610.74 510.193C1616.85 507.902 1614.6 498.78 1608.13 499.586L1584.02 502.587L1572.26 502.507C1566.13 502.465 1565.28 493.626 1571.29 492.422C1575.61 491.558 1576.87 485.99 1573.34 483.352L1570.57 481.277C1569.31 480.334 1567.75 479.87 1566.18 479.967L1483.79 485.085L1458.17 486.073C1453.21 486.264 1450.84 480.039 1454.68 476.89L1454.85 476.755C1455 476.63 1455.17 476.52 1455.34 476.427Z" fill="#2E6BA3" fill-opacity="0.43"/>
<path d="M1386.12 502.564L1381.48 504.198C1378.96 505.475 1380.03 509.294 1382.85 509.081L1406.93 507.266L1482.77 500.524C1483.3 500.478 1483.82 500.554 1484.31 500.747C1487.48 502.001 1486.99 506.631 1483.63 507.194L1441.08 514.317L1496.35 511.594L1535.54 506.715C1536.11 507.699 1536.33 508.88 1536.17 510.004L1519.49 514.429L1470.12 520.575L1504.03 518.601C1504.37 518.581 1504.44 518.115 1504.13 517.985C1503.83 517.858 1503.89 517.411 1504.21 517.37L1532.64 513.832C1534.8 513.274 1535.92 511.704 1536.17 510.004L1560.08 503.659L1535.54 506.715C1534.72 505.289 1533.18 504.277 1531.04 504.455L1526.95 504.796L1497.97 509.963L1472.57 510.917L1510.6 504.125C1513.09 503.681 1514.33 500.857 1512.98 498.724C1512.28 497.621 1511.03 496.99 1509.73 497.082L1427.81 502.848L1388.04 506.916C1387.38 506.984 1386.79 506.507 1386.7 505.848C1386.65 505.401 1386.84 504.958 1387.21 504.701C1388.37 503.895 1387.45 502.094 1386.12 502.564Z" fill="#2E6BA3" fill-opacity="0.43"/>
<path d="M1412.39 436.984L1418.31 438.375C1420.15 438.808 1421.14 436.288 1419.49 435.358C1418.98 435.068 1418.66 434.515 1418.66 433.925C1418.66 433.013 1419.39 432.253 1420.3 432.231L1470.52 431.048L1573.58 425.107C1575.39 425.002 1576.99 423.89 1577.72 422.228L1578.35 420.795C1579.4 418.404 1577.74 415.699 1575.14 415.551L1557.06 414.523C1554.11 414.356 1554.03 410.036 1556.97 409.763C1557.09 409.752 1557.21 409.749 1557.33 409.756L1594.2 411.841L1599.29 411.619C1607.15 411.274 1607.7 399.834 1599.9 398.746H1563.83C1563.39 398.746 1563.23 398.166 1563.6 397.936C1563.99 397.696 1563.8 397.094 1563.35 397.126L1520.68 400.143H1583.09C1583.28 400.143 1583.46 400.156 1583.65 400.183C1588.36 400.874 1587.85 407.825 1583.09 407.825H1554.87L1485.34 413.413L1539.51 415.861C1544.04 416.066 1545.53 422.051 1541.62 424.353C1540.96 424.736 1540.23 424.951 1539.47 424.98L1443.73 428.603L1413.47 430.186C1409.68 430.384 1408.85 435.618 1412.39 436.984Z" fill="#2E6BA3" fill-opacity="0.43"/>
<path d="M964.5 827.5C1232 798.5 941.5 818 1145.5 771.999C1381.27 718.835 1766.41 789 1766.41 789L1789.91 995H1569.91C1569.91 995 1130.42 997.88 847.409 984.5C678.998 976.538 531.931 962.5 413.909 962.5C299.409 962.5 424.334 937.494 437.909 932C479.909 915 882.054 836.438 964.5 827.5Z" fill="#EFE7BA" fill-opacity="0.7"/>
<path d="M117.584 155.648C-35.1791 157.04 -262.991 193.364 -262.991 193.364L-290 297H2577V242.294C2577 242.294 2479.88 245.004 2418.22 242.294C2328.79 238.363 2284.64 223.087 2195.61 217.829C2088.65 211.514 2110.43 242.113 1918.97 217.829L1428.73 155.648C1237.27 131.365 1175.72 236.981 1007.23 217.829C925.174 208.502 906.502 169.883 821.443 170.599C739.093 171.292 721.395 206.311 643.842 217.829C442.65 247.71 331.21 153.701 117.584 155.648Z" fill="#064317" fill-opacity="0.85"/>
<path d="M-186.416 191.566C-339.179 192.545 -566.991 218.098 -566.991 218.098L-594 291H2273V252.517C2273 252.517 2175.88 254.424 2114.22 252.517C2024.79 249.752 1980.64 239.006 1891.61 235.307C1784.65 230.865 1806.43 252.39 1614.97 235.307L1124.73 191.566C933.274 174.484 871.717 248.78 703.229 235.307C621.174 228.746 602.502 201.58 517.443 202.083C435.093 202.571 417.395 227.205 339.842 235.307C138.65 256.327 27.2101 190.197 -186.416 191.566Z" fill="#064317" fill-opacity="0.85"/>
<path d="M200.279 500C119.126 500 -6 477.163 -6 477.163L40.182 257.177C40.182 257.177 756.816 204.797 1207.05 268.829C1254.86 275.629 1342 289.802 1342 289.802H1362C1355.6 312.174 1306.39 303.046 1280.94 303.318C1182.79 304.368 1110.86 308.599 1013.08 316.368C971.149 319.7 739.5 328.5 739.5 328.5L903 342.5C846.042 381.035 790.926 357.646 720.596 374.161C575.122 408.322 725.499 382.007 875 395.689C915.294 399.377 1035.88 409.206 1087.95 409.206C1157.5 409.206 1206.4 427.715 1196 432C1107.74 468.354 448.636 500 200.279 500Z" fill="#E9E6D5" fill-opacity="0.7"/>
<path d="M374.939 257C374.939 284.614 30.0533 280.5 2.43903 280.5C-25.1752 280.5 -264.061 280.5 -222.061 280.5C-222.061 252.886 103.825 189 131.439 189C159.054 189 374.939 229.386 374.939 257Z" fill="#207458"/>
<path d="M1922.94 273C1922.94 300.614 1578.05 296.5 1550.44 296.5C1522.82 296.5 1283.94 296.5 1325.94 296.5C1325.94 268.886 1651.83 205 1679.44 205C1707.05 205 1922.94 245.386 1922.94 273Z" fill="#0E4D20"/>
<path d="M1679.94 776C1679.94 803.614 1335.05 799.5 1307.44 799.5C1279.82 799.5 1040.94 799.5 1082.94 799.5C1082.94 771.886 1408.83 708 1436.44 708C1464.05 708 1679.94 748.386 1679.94 776Z" fill="#235E38"/>
<path d="M1272.84 284.038C1272.12 311.643 348.941 325.381 296.459 324.007C268.854 323.285 45.4082 303.546 46.1307 275.941C46.8532 248.337 300.789 158.564 442.74 162.279C470.345 163.001 1273.56 256.434 1272.84 284.038Z" fill="#42A35D" fill-opacity="0.97"/>
<path d="M863.5 351C863.5 378.614 -59 416.5 -111.5 416.5C-139.114 416.5 -363 402.614 -363 375C-363 347.386 -111.5 251 30.5 251C58.1142 251 863.5 323.386 863.5 351Z" fill="#086635"/>
<path d="M1144 434C1144 461.614 221.5 499.5 169 499.5C141.386 499.5 -82.5 485.614 -82.5 458C-82.5 430.386 169 334 311 334C338.614 334 1144 406.386 1144 434Z" fill="#089033"/>
<path d="M497.108 939.593C499.346 982.714 1942.95 967.083 2024.93 962.827C2068.05 960.588 2416.53 920.753 2414.29 877.632C2412.05 834.511 2011.51 704.39 1789.77 715.903C1746.65 718.142 494.869 896.472 497.108 939.593Z" fill="#003910"/>
<path d="M0 653L1744.5 415.5L1728 470L0 729V653Z" fill="#D6ECF8"/>
<path d="M0 727.5L1728 468.5V489L0 767V727.5Z" fill="#B6CCD8"/>
<path d="M7.08264 671.502L1759.35 422.573L1788.13 427.318L-89.0671 692.687L7.08264 671.502Z" fill="#1B578E"/>
<path d="M3.2215 688.167L1755.35 438.206L1784.22 443.591L-92.8453 709.967L3.2215 688.167Z" fill="#1B578E"/>
<path d="M663.062 493.228C666.468 488.514 671.757 485.516 677.55 485.015L1406.8 421.958C1419.34 420.873 1429.75 431.504 1428.4 444.02L1426.18 464.734C1425.19 473.907 1418.06 481.216 1408.92 482.425L638.941 584.22C621.546 586.52 609.833 566.903 620.109 552.68L663.062 493.228Z" fill="#FFF460"/>
<path d="M673.262 509.115C676.595 504.502 681.735 501.527 687.395 500.936L1414.19 425.008C1427.08 423.662 1437.83 434.741 1436.09 447.582L1435 455.615L1432.53 473.873C1431.33 482.742 1424.38 489.733 1415.52 490.992L649.569 599.752C632.106 602.231 620.216 582.535 630.546 568.238L673.262 509.115Z" fill="#F6CD00"/>
<path d="M1371 497.365L1380.5 428.865L1416.64 425.4C1416.88 425.377 1417.12 425.397 1417.35 425.461L1427.57 428.249C1427.85 428.325 1428.11 428.462 1428.34 428.649L1436.66 435.659C1437.18 436.099 1437.45 436.774 1437.36 437.451L1432.05 477.476C1432.02 477.733 1431.93 477.98 1431.81 478.205L1426.39 487.678C1426.14 488.119 1425.73 488.448 1425.24 488.597L1419.65 490.319C1419.55 490.349 1419.45 490.372 1419.35 490.387L1371 497.365Z" fill="#F7E690"/>
<path d="M1393.9 451.412L1396 439.865L1428 437.865L1423.5 473.865L1416.16 474.822C1402.73 476.574 1391.48 464.742 1393.9 451.412Z" fill="#180801"/>
<path d="M1393 422.865L1411.17 421.493C1416.5 421.091 1421.77 422.838 1425.8 426.344L1431 430.865L1425.68 428.077C1422.3 426.306 1418.48 425.539 1414.68 425.868L1380 428.865L1393 422.865Z" fill="#FFF0DB"/>
<path d="M660 496.865L717 515.865L667.27 587.591C665.771 589.752 663.861 591.597 661.649 593.019L651 599.865H623.935C618.432 599.865 613.373 596.843 610.764 591.998C608.986 588.697 608.513 584.849 609.438 581.215L614.065 563.04C614.683 560.611 615.752 558.321 617.216 556.287L660 496.865Z" fill="#290E02"/>
<path d="M786 474.365L845.5 484.865L738.992 496.027C733.863 496.565 729.14 499.063 725.809 502.999L714.5 516.365L660 496.865L665.23 490.888C668.613 487.022 673.354 484.605 678.471 484.14L786 474.365Z" fill="#FFF0DB"/>
<path d="M720 485.865L847.5 474.365V463.865L865 467.865V478.865L732 491.865V479.865L720 474.365V485.865Z" fill="#F7E690"/>
<path d="M720 474.365L848.5 462.865L865.5 467.865V478.365L732 492.365V479.865L720 474.365Z" fill="#F7E690"/>
<path d="M847.216 501.331L716.5 515.365L669 583.365L845.782 558.043C853.009 557.008 859.097 552.118 861.667 545.285L868.071 528.257C873.313 514.316 862.024 499.741 847.216 501.331Z" fill="#180801"/>
<g filter="url(#filter0_i_127_1229)">
<path d="M888 466.865L955.5 460.865L971.526 468.672C973.572 469.669 974.687 471.922 974.238 474.153L958 554.865L897.513 562.865L915.095 482.025C915.617 479.627 914.321 477.205 912.038 476.308L888 466.865Z" fill="#F7E690"/>
</g>
<g filter="url(#filter1_i_127_1229)">
<path d="M1140.72 444.982L1198.29 439.865L1211.8 445.121C1213.67 445.847 1214.78 447.775 1214.47 449.754L1203.5 519.865L1149 527.865L1160.91 455.46C1161.25 453.389 1160.03 451.379 1158.04 450.719L1140.72 444.982Z" fill="#F7E690"/>
</g>
<path d="M605.621 591.457L612.5 568.365L661.469 590.623C661.816 590.781 662.2 590.836 662.577 590.783L849.508 564.289C850.927 564.088 852.091 565.4 851.721 566.784L850.839 570.093C850.633 570.865 849.988 571.44 849.198 571.556L653.5 600.365L608.87 603.244C607.818 603.312 606.894 602.552 606.758 601.507L605.555 592.287C605.519 592.008 605.541 591.726 605.621 591.457Z" fill="#D4BF02"/>
<path d="M656.5 600.365L663 590.865L613 567.365L604.359 593.289C604.123 593.997 604.048 594.749 604.141 595.49L604.884 601.439C605.225 604.165 607.701 606.106 610.43 605.785L656.5 600.365Z" fill="#F7E690"/>
<path d="M720 474.365L732 479.865V492.365L720 486.865V474.365Z" fill="#D4BF02"/>
<path d="M732 479.865L865.5 467.865V479.365L732 492.365V479.865Z" fill="#DFD13A"/>
<path d="M985 449.191L1089.21 439.865L1103 443.92V452.435L994.732 463.789V453.652L985 449.191Z" fill="#F7E690"/>
<path d="M985 449.192L994.732 453.652V463.79L985 459.329V449.192Z" fill="#D4BF02"/>
<path d="M994.732 453.652L1103 443.92V453.247L994.732 463.79V453.652Z" fill="#DFD13A"/>
<path d="M1245 428.294L1328.02 420.865L1339 424.095V430.878L1252.75 439.923V431.848L1245 428.294Z" fill="#F7E690"/>
<path d="M1245 428.294L1252.75 431.848V439.923L1245 436.37V428.294Z" fill="#D4BF02"/>
<path d="M1252.75 431.848L1339 424.095V431.525L1252.75 439.923V431.848Z" fill="#DFD13A"/>
<path d="M668.979 582.638L615.5 559.365L614.591 561.183C614.531 561.304 614.482 561.431 614.448 561.562L612.5 568.865L662.471 591.129C662.817 591.283 663.199 591.336 663.573 591.282L851.103 564.067C851.94 563.946 852.611 563.31 852.777 562.48L853.445 559.139C853.716 557.785 852.566 556.571 851.2 556.767L670.062 582.784C669.695 582.837 669.32 582.786 668.979 582.638Z" fill="#FFF0DB"/>
<path d="M1070.02 479.692C1070.6 475.102 1074.24 471.504 1078.84 470.994L1139.14 464.294C1145.64 463.571 1151.08 469.193 1150.14 475.672L1146.33 501.871C1145.68 506.303 1142.17 509.766 1137.73 510.347L1077.82 518.187C1071.33 519.036 1065.79 513.525 1066.6 507.031L1070.02 479.692Z" fill="#180801"/>
<path d="M983.022 489.692C983.595 485.102 987.242 481.504 991.84 480.994L1052.14 474.294C1058.64 473.571 1064.08 479.193 1063.14 485.672L1059.33 511.871C1058.68 516.303 1055.17 519.766 1050.73 520.347L990.825 528.187C984.335 529.036 978.792 523.525 979.604 517.031L983.022 489.692Z" fill="#180801"/>
<path d="M917.776 499.007C918.687 494.65 922.368 491.419 926.806 491.082L951.923 489.17C958.599 488.663 963.879 494.731 962.453 501.272L957.521 523.888C956.611 528.061 953.15 531.196 948.907 531.69L923.783 534.613C917.003 535.402 911.442 529.316 912.838 522.635L917.776 499.007Z" fill="#180801"/>
<path d="M1165.94 472.564C1166.56 468.641 1169.8 465.661 1173.76 465.373L1197.67 463.635C1203.11 463.239 1207.52 467.975 1206.74 473.374L1203.94 492.805C1203.39 496.666 1200.29 499.659 1196.41 500.081L1172.1 502.723C1166.51 503.332 1161.86 498.459 1162.74 492.9L1165.94 472.564Z" fill="#180801"/>
<path d="M1301.56 455.145C1302.08 450.977 1305.39 447.71 1309.57 447.246L1364.32 441.162C1370.23 440.506 1375.16 445.611 1374.31 451.494L1370.85 475.284C1370.26 479.309 1367.07 482.453 1363.04 482.981L1308.65 490.099C1302.75 490.871 1297.72 485.867 1298.46 479.969L1301.56 455.145Z" fill="#180801"/>
<path d="M1222.56 464.225C1223.08 460.057 1226.39 456.79 1230.57 456.326L1285.32 450.243C1291.23 449.586 1296.16 454.691 1295.31 460.574L1291.85 484.364C1291.26 488.389 1288.07 491.533 1284.04 492.061L1229.65 499.18C1223.75 499.951 1218.72 494.947 1219.46 489.05L1222.56 464.225Z" fill="#180801"/>
<path d="M983.896 534.07C984.583 532.975 985.725 532.245 987.007 532.08L1137.8 512.663C1140.73 512.286 1143.08 515.035 1142.25 517.869C1141.8 519.429 1140.47 520.573 1138.86 520.786L988.126 540.661C984.494 541.14 981.948 537.172 983.896 534.07Z" fill="#FFF0DB"/>
<path d="M982.896 542.07C983.583 540.975 984.725 540.245 986.007 540.08L1136.8 520.663C1139.73 520.286 1142.08 523.035 1141.25 525.869C1140.8 527.429 1139.47 528.573 1137.86 528.786L987.126 548.661C983.494 549.14 980.948 545.172 982.896 542.07Z" fill="#D4BF02"/>
<path d="M1221.14 504.931C1221.67 503.365 1223.05 502.241 1224.69 502.047L1364.6 485.503C1367.16 485.2 1369.2 487.608 1368.48 490.085C1368.08 491.461 1366.9 492.469 1365.48 492.651L1225.73 510.505C1222.61 510.903 1220.15 507.91 1221.14 504.931Z" fill="#FFF0DB"/>
<path d="M1221.77 511.318C1222.24 510.708 1222.93 510.311 1223.69 510.214L1365.06 492.366C1366.86 492.138 1368.24 493.952 1367.53 495.627C1367.2 496.394 1366.49 496.933 1365.67 497.043L1224.44 515.937C1221.88 516.278 1220.2 513.359 1221.77 511.318Z" fill="#D4BF02"/>
<path d="M907.54 552.361C907.827 551.741 908.41 551.309 909.088 551.217L953.132 545.253C954.518 545.065 955.664 546.322 955.349 547.685L954.812 550.012C954.624 550.826 953.951 551.437 953.124 551.545L908.596 557.393C907.035 557.598 905.86 556.001 906.52 554.571L907.54 552.361Z" fill="#FFF0DB"/>
<path d="M908.04 545.361C908.327 544.741 908.91 544.309 909.588 544.217L953.632 538.253C955.018 538.065 956.164 539.322 955.849 540.685L955.312 543.012C955.124 543.826 954.451 544.437 953.624 544.545L909.096 550.393C907.535 550.598 906.36 549.001 907.02 547.571L908.04 545.361Z" fill="#F6CD00"/>
<path d="M1161.12 516.969C1161.36 516.45 1161.85 516.09 1162.41 516.014L1199.19 511.034C1200.35 510.877 1201.3 511.926 1201.04 513.064L1200.59 515.007C1200.43 515.686 1199.87 516.197 1199.18 516.288L1162 521.17C1160.7 521.341 1159.72 520.008 1160.27 518.814L1161.12 516.969Z" fill="#FFF0DB"/>
<path d="M1161.54 511.124C1161.78 510.606 1162.27 510.246 1162.83 510.169L1199.61 505.189C1200.76 505.032 1201.72 506.081 1201.46 507.219L1201.01 509.163C1200.85 509.842 1200.29 510.352 1199.6 510.443L1162.42 515.325C1161.12 515.496 1160.14 514.163 1160.69 512.969L1161.54 511.124Z" fill="#F6CD00"/>
<rect x="66" y="1089" width="53" height="55" rx="26.5" fill="url(#paint3_radial_127_1229)" fill-opacity="0.6"/>
</g>
<defs>
<filter id="filter0_i_127_1229" x="888" y="460.865" width="86.3364" height="106" filterUnits="userSpaceOnUse" color-interpolation-filters="sRGB">
<feFlood flood-opacity="0" result="BackgroundImageFix"/>
<feBlend mode="normal" in="SourceGraphic" in2="BackgroundImageFix" result="shape"/>
<feColorMatrix in="SourceAlpha" type="matrix" values="0 0 0 0 0 0 0 0 0 0 0 0 0 0 0 0 0 0 127 0" result="hardAlpha"/>
<feOffset dy="4"/>
<feGaussianBlur stdDeviation="5"/>
<feComposite in2="hardAlpha" operator="arithmetic" k2="-1" k3="1"/>
<feColorMatrix type="matrix" values="0 0 0 0 0.885034 0 0 0 0 0.70106 0 0 0 0 0.0359223 0 0 0 1 0"/>
<feBlend mode="normal" in2="shape" result="effect1_innerShadow_127_1229"/>
</filter>
<filter id="filter1_i_127_1229" x="1140.72" y="439.865" width="73.8005" height="91.4118" filterUnits="userSpaceOnUse" color-interpolation-filters="sRGB">
<feFlood flood-opacity="0" result="BackgroundImageFix"/>
<feBlend mode="normal" in="SourceGraphic" in2="BackgroundImageFix" result="shape"/>
<feColorMatrix in="SourceAlpha" type="matrix" values="0 0 0 0 0 0 0 0 0 0 0 0 0 0 0 0 0 0 127 0" result="hardAlpha"/>
<feOffset dy="3.41176"/>
<feGaussianBlur stdDeviation="4.26471"/>
<feComposite in2="hardAlpha" operator="arithmetic" k2="-1" k3="1"/>
<feColorMatrix type="matrix" values="0 0 0 0 0.886275 0 0 0 0 0.701961 0 0 0 0 0.0352941 0 0 0 1 0"/>
<feBlend mode="normal" in2="shape" result="effect1_innerShadow_127_1229"/>
</filter>
<linearGradient id="paint0_linear_127_1229" x1="864" y1="0" x2="864" y2="1117" gradientUnits="userSpaceOnUse">
<stop stop-color="#6FCFF7"/>
<stop offset="1" stop-color="#00498D"/>
</linearGradient>
<linearGradient id="paint1_linear_127_1229" x1="978" y1="-171.5" x2="1001.5" y2="336" gradientUnits="userSpaceOnUse">
<stop offset="0.405" stop-color="#FFF5C3"/>
<stop offset="1" stop-color="#B2F8FD"/>
</linearGradient>
<linearGradient id="paint2_linear_127_1229" x1="1323.5" y1="51.5" x2="1361.5" y2="415.5" gradientUnits="userSpaceOnUse">
<stop stop-color="#D6F9E3" stop-opacity="0.14"/>
<stop offset="1" stop-color="#3A8EC4"/>
</linearGradient>
<radialGradient id="paint3_radial_127_1229" cx="0" cy="0" r="1" gradientUnits="userSpaceOnUse" gradientTransform="translate(92.5 1116.5) rotate(90) scale(27.5 26.5)">
<stop offset="0.02" stop-color="#83B2DC"/>
<stop offset="1" stop-color="#CCE7FF"/>
</radialGradient>
<clipPath id="clip0_127_1229">
<rect width="1728" height="1117" fill="white"/>
</clipPath>
</defs>
</svg>
