<svg width="100%" height="100%" viewBox="0 0 1728 1117" fill="none" xmlns="http://www.w3.org/2000/svg">
<g clip-path="url(#clip0_127_1229)">
<rect width="1728" height="1117" fill="url(#paint0_linear_127_1229)"/>
<rect width="1728" height="281" fill="url(#paint1_linear_127_1229)"/>
<path d="M688.596 569.518L809.664 543.607C811.423 543.23 813.251 543.805 814.479 545.12C816.912 547.728 816.001 551.962 812.71 553.338L786 564.5L736.535 582.456C728.045 585.538 727.668 597.406 735.945 601.02L790.086 624.664C791.348 625.215 792.711 625.5 794.088 625.5H1029.22C1029.74 625.5 1030.26 625.459 1030.77 625.378L1414.81 564.845C1416.25 564.618 1417.73 564.708 1419.13 565.11L1482.43 583.264C1484.12 583.746 1485.89 583.779 1487.59 583.359L1500.99 580.048C1512.92 577.097 1518.62 594.111 1507.32 598.949L1480.81 610.295C1478.98 611.08 1476.95 611.299 1474.99 610.923L1404.02 597.292C1403.01 597.099 1401.98 597.061 1400.96 597.182L1030 641L762.842 648.407C760.673 648.467 758.543 647.82 756.774 646.564L689.4 598.705C687.833 597.592 686.62 596.051 685.907 594.266L681.404 583.011C679.102 577.256 682.536 570.815 688.596 569.518Z" fill="#084A87"/>
<path d="M386.987 621.631L602.475 548.021C603.488 547.675 604.539 547.45 605.605 547.353L794.5 530L629.709 563.156C628.574 563.384 627.474 563.758 626.435 564.266L445.118 653.018C435.67 657.642 434.9 670.813 443.744 676.507L526.944 730.068C529.124 731.472 531.662 732.218 534.255 732.218H850.676C851.326 732.218 851.976 732.171 852.62 732.077L1419.5 649.611L1607.88 627.134C1608.62 627.045 1609.36 626.893 1610.08 626.681L1714.5 596L1561.58 660.62C1560.2 661.203 1558.74 661.552 1557.24 661.654L1354.64 675.488L851.653 763.071L492.501 777.751C488.622 777.909 484.862 776.391 482.181 773.583L390.872 677.969C389.317 676.341 388.194 674.35 387.605 672.178L378.317 637.95C376.452 631.075 380.246 623.933 386.987 621.631Z" fill="#084A87"/>
<path d="M1739.5 315C1739.5 342.614 1966 462 1283 462C416.5 486 774.5 358.114 774.5 330.5C774.5 302.886 1324.39 297.501 1352 297.501C1379.61 297.501 1755 225 1739.5 315Z" fill="url(#paint2_linear_127_1229)"/>
<path d="M1503.75 443.356L1507.33 444.732C1509.68 445.633 1511.54 442.632 1509.69 440.927C1509.23 440.496 1508.96 439.888 1508.96 439.251V439.077C1508.96 437.638 1510.1 436.456 1511.54 436.401L1554.37 434.75L1642.22 426.467C1645.2 426.186 1647.69 424.085 1648.46 421.198L1649.06 418.952C1649.9 415.842 1647.73 412.728 1644.53 412.429L1629.99 411.078C1625.99 410.706 1625.82 404.918 1629.79 404.313C1630.07 404.271 1630.35 404.263 1630.62 404.288L1661.84 407.176C1662.37 407.225 1662.91 407.231 1663.44 407.193L1667.25 406.92C1677.82 406.163 1678.98 391.088 1668.64 388.731C1667.97 388.577 1667.28 388.5 1666.59 388.5H1636.31C1635.71 388.5 1635.42 387.78 1635.84 387.358C1636.28 386.909 1635.92 386.148 1635.29 386.22L1598.27 390.5H1652.51C1652.94 390.5 1653.37 390.551 1653.79 390.651C1660.13 392.17 1659.03 401.5 1652.51 401.5H1628.21L1616.55 403.033C1610.47 403.831 1610.73 412.707 1616.84 413.159C1621.23 413.484 1623.17 418.854 1619.99 421.907L1617.49 424.309C1616.36 425.401 1614.87 426.053 1613.3 426.151L1530.91 431.25L1505.36 433.436C1500.42 433.859 1498.84 440.328 1503.04 442.978L1503.22 443.092C1503.39 443.197 1503.56 443.286 1503.75 443.356Z" fill="#2E6BA3" fill-opacity="0.43"/>
<path d="M1455.34 476.427L1458.72 474.62C1460.94 473.436 1463.16 476.184 1461.54 478.103C1461.13 478.59 1460.94 479.225 1461.02 479.857L1461.04 480.03C1461.22 481.458 1462.49 482.49 1463.93 482.368L1506.63 478.715L1594.84 476.081C1597.83 475.992 1600.56 477.769 1601.68 480.538L1602.56 482.693C1603.77 485.676 1602.01 489.034 1598.86 489.726L1584.6 492.863C1580.68 493.727 1581.22 499.492 1585.24 499.6C1585.52 499.608 1585.8 499.582 1586.07 499.522L1616.69 492.8C1617.21 492.686 1617.74 492.614 1618.28 492.586L1622.09 492.386C1632.67 491.831 1635.68 506.648 1625.72 510.264C1625.07 510.499 1624.4 510.661 1623.71 510.746L1593.66 514.487C1593.07 514.561 1592.87 515.312 1593.33 515.679C1593.83 516.069 1593.56 516.87 1592.93 516.876L1555.67 517.201L1609.49 510.501C1609.92 510.448 1610.34 510.344 1610.74 510.193C1616.85 507.902 1614.6 498.78 1608.13 499.586L1584.02 502.587L1572.26 502.507C1566.13 502.465 1565.28 493.626 1571.29 492.422C1575.61 491.558 1576.87 485.99 1573.34 483.352L1570.57 481.277C1569.31 480.334 1567.75 479.87 1566.18 479.967L1483.79 485.085L1458.17 486.073C1453.21 486.264 1450.84 480.039 1454.68 476.89L1454.85 476.755C1455 476.63 1455.17 476.52 1455.34 476.427Z" fill="#2E6BA3" fill-opacity="0.43"/>
<path d="M1386.12 502.564L1381.48 504.198C1378.96 505.475 1380.03 509.294 1382.85 509.081L1406.93 507.266L1482.77 500.524C1483.3 500.478 1483.82 500.554 1484.31 500.747C1487.48 502.001 1486.99 506.631 1483.63 507.194L1441.08 514.317L1496.35 511.594L1535.54 506.715C1536.11 507.699 1536.33 508.88 1536.17 510.004L1519.49 514.429L1470.12 520.575L1504.03 518.601C1504.37 518.581 1504.44 518.115 1504.13 517.985C1503.83 517.858 1503.89 517.411 1504.21 517.37L1532.64 513.832C1534.8 513.274 1535.92 511.704 1536.17 510.004L1560.08 503.659L1535.54 506.715C1534.72 505.289 1533.18 504.277 1531.04 504.455L1526.95 504.796L1497.97 509.963L1472.57 510.917L1510.6 504.125C1513.09 503.681 1514.33 500.857 1512.98 498.724C1512.28 497.621 1511.03 496.99 1509.73 497.082L1427.81 502.848L1388.04 506.916C1387.38 506.984 1386.79 506.507 1386.7 505.848C1386.65 505.401 1386.84 504.958 1387.21 504.701C1388.37 503.895 1387.45 502.094 1386.12 502.564Z" fill="#2E6BA3" fill-opacity="0.43"/>
<path d="M1412.39 436.984L1418.31 438.375C1420.15 438.808 1421.14 436.288 1419.49 435.358C1418.98 435.068 1418.66 434.515 1418.66 433.925C1418.66 433.013 1419.39 432.253 1420.3 432.231L1470.52 431.048L1573.58 425.107C1575.39 425.002 1576.99 423.89 1577.72 422.228L1578.35 420.795C1579.4 418.404 1577.74 415.699 1575.14 415.551L1557.06 414.523C1554.11 414.356 1554.03 410.036 1556.97 409.763C1557.09 409.752 1557.21 409.749 1557.33 409.756L1594.2 411.841L1599.29 411.619C1607.15 411.274 1607.7 399.834 1599.9 398.746H1563.83C1563.39 398.746 1563.23 398.166 1563.6 397.936C1563.99 397.696 1563.8 397.094 1563.35 397.126L1520.68 400.143H1583.09C1583.28 400.143 1583.46 400.156 1583.65 400.183C1588.36 400.874 1587.85 407.825 1583.09 407.825H1554.87L1485.34 413.413L1539.51 415.861C1544.04 416.066 1545.53 422.051 1541.62 424.353C1540.96 424.736 1540.23 424.951 1539.47 424.98L1443.73 428.603L1413.47 430.186C1409.68 430.384 1408.85 435.618 1412.39 436.984Z" fill="#2E6BA3" fill-opacity="0.43"/>
<path d="M964.5 827.5C1232 798.5 941.5 818 1145.5 771.999C1381.27 718.835 1766.41 789 1766.41 789L1789.91 995H1569.91C1569.91 995 1130.42 997.88 847.409 984.5C678.998 976.538 531.931 962.5 413.909 962.5C299.409 962.5 424.334 937.494 437.909 932C479.909 915 882.054 836.438 964.5 827.5Z" fill="#EFE7BA" fill-opacity="0.7"/>
<path d="M117.584 155.648C-35.1791 157.04 -262.991 193.364 -262.991 193.364L-290 297H2577V242.294C2577 242.294 2479.88 245.004 2418.22 242.294C2328.79 238.363 2284.64 223.087 2195.61 217.829C2088.65 211.514 2110.43 242.113 1918.97 217.829L1428.73 155.648C1237.27 131.365 1175.72 236.981 1007.23 217.829C925.174 208.502 906.502 169.883 821.443 170.599C739.093 171.292 721.395 206.311 643.842 217.829C442.65 247.71 331.21 153.701 117.584 155.648Z" fill="#064317" fill-opacity="0.85"/>
<path d="M-186.416 191.566C-339.179 192.545 -566.991 218.098 -566.991 218.098L-594 291H2273V252.517C2273 252.517 2175.88 254.424 2114.22 252.517C2024.79 249.752 1980.64 239.006 1891.61 235.307C1784.65 230.865 1806.43 252.39 1614.97 235.307L1124.73 191.566C933.274 174.484 871.717 248.78 703.229 235.307C621.174 228.746 602.502 201.58 517.443 202.083C435.093 202.571 417.395 227.205 339.842 235.307C138.65 256.327 27.2101 190.197 -186.416 191.566Z" fill="#064317" fill-opacity="0.85"/>
<path d="M200.279 500C119.126 500 -6 477.163 -6 477.163L40.182 257.177C40.182 257.177 756.816 204.797 1207.05 268.829C1254.86 275.629 1342 289.802 1342 289.802H1362C1355.6 312.174 1306.39 303.046 1280.94 303.318C1182.79 304.368 1110.86 308.599 1013.08 316.368C971.149 319.7 739.5 328.5 739.5 328.5L903 342.5C846.042 381.035 790.926 357.646 720.596 374.161C575.122 408.322 725.499 382.007 875 395.689C915.294 399.377 1035.88 409.206 1087.95 409.206C1157.5 409.206 1206.4 427.715 1196 432C1107.74 468.354 448.636 500 200.279 500Z" fill="#E9E6D5" fill-opacity="0.7"/>
<path d="M374.939 257C374.939 284.614 30.0533 280.5 2.43903 280.5C-25.1752 280.5 -264.061 280.5 -222.061 280.5C-222.061 252.886 103.825 189 131.439 189C159.054 189 374.939 229.386 374.939 257Z" fill="#207458"/>
<path d="M1922.94 273C1922.94 300.614 1578.05 296.5 1550.44 296.5C1522.82 296.5 1283.94 296.5 1325.94 296.5C1325.94 268.886 1651.83 205 1679.44 205C1707.05 205 1922.94 245.386 1922.94 273Z" fill="#0E4D20"/>
<path d="M1679.94 776C1679.94 803.614 1335.05 799.5 1307.44 799.5C1279.82 799.5 1040.94 799.5 1082.94 799.5C1082.94 771.886 1408.83 708 1436.44 708C1464.05 708 1679.94 748.386 1679.94 776Z" fill="#235E38"/>
<path d="M1272.84 284.038C1272.12 311.643 348.941 325.381 296.459 324.007C268.854 323.285 45.4082 303.546 46.1307 275.941C46.8532 248.337 300.789 158.564 442.74 162.279C470.345 163.001 1273.56 256.434 1272.84 284.038Z" fill="#42A35D" fill-opacity="0.97"/>
<path d="M863.5 351C863.5 378.614 -59 416.5 -111.5 416.5C-139.114 416.5 -363 402.614 -363 375C-363 347.386 -111.5 251 30.5 251C58.1142 251 863.5 323.386 863.5 351Z" fill="#086635"/>
<path d="M1144 434C1144 461.614 221.5 499.5 169 499.5C141.386 499.5 -82.5 485.614 -82.5 458C-82.5 430.386 169 334 311 334C338.614 334 1144 406.386 1144 434Z" fill="#089033"/>
<path d="M497.108 939.593C499.346 982.714 1942.95 967.083 2024.93 962.827C2068.05 960.588 2416.53 920.753 2414.29 877.632C2412.05 834.511 2011.51 704.39 1789.77 715.903C1746.65 718.142 494.869 896.472 497.108 939.593Z" fill="#003910"/>
<path d="M0 653L1744.5 415.5L1728 470L0 729V653Z" fill="#D6ECF8"/>
<path d="M0 727.5L1728 468.5V489L0 767V727.5Z" fill="#B6CCD8"/>
<path d="M7.08264 671.502L1759.35 422.573L1788.13 427.318L-89.0671 692.687L7.08264 671.502Z" fill="#1B578E"/>
<path d="M3.2215 688.167L1755.35 438.206L1784.22 443.591L-92.8453 709.967L3.2215 688.167Z" fill="#1B578E"/>
<path d="M663.062 493.228C666.468 488.514 671.757 485.516 677.55 485.015L1406.8 421.958C1419.34 420.873 1429.75 431.504 1428.4 444.02L1426.18 464.734C1425.19 473.907 1418.06 481.216 1408.92 482.425L638.941 584.22C621.546 586.52 609.833 566.903 620.109 552.68L663.062 493.228Z" fill="#FFF460"/>
<path d="M673.262 509.115C676.595 504.502 681.735 501.527 687.395 500.936L1414.19 425.008C1427.08 423.662 1437.83 434.741 1436.09 447.582L1435 455.615L1432.53 473.873C1431.33 482.742 1424.38 489.733 1415.52 490.992L649.569 599.752C632.106 602.231 620.216 582.535 630.546 568.238L673.262 509.115Z" fill="#F6CD00"/>
<path d="M1371 497.365L1380.5 428.865L1416.64 425.4C1416.88 425.377 1417.12 425.397 1417.35 425.461L1427.57 428.249C1427.85 428.325 1428.11 428.462 1428.34 428.649L1436.66 435.659C1437.18 436.099 1437.45 436.774 1437.36 437.451L1432.05 477.476C1432.02 477.733 1431.93 477.98 1431.81 478.205L1426.39 487.678C1426.14 488.119 1425.73 488.448 1425.24 488.597L1419.65 490.319C1419.55 490.349 1419.45 490.372 1419.35 490.387L1371 497.365Z" fill="#F7E690"/>
<path d="M1393.9 451.412L1396 439.865L1428 437.865L1423.5 473.865L1416.16 474.822C1402.73 476.574 1391.48 464.742 1393.9 451.412Z" fill="#180801"/>
<path d="M1393 422.865L1411.17 421.493C1416.5 421.091 1421.77 422.838 1425.8 426.344L1431 430.865L1425.68 428.077C1422.3 426.306 1418.48 425.539 1414.68 425.868L1380 428.865L1393 422.865Z" fill="#FFF0DB"/>
<path d="M660 496.865L717 515.865L667.27 587.591C665.771 589.752 663.861 591.597 661.649 593.019L651 599.865H623.935C618.432 599.865 613.373 596.843 610.764 591.998C608.986 588.697 608.513 584.849 609.438 581.215L614.065 563.04C614.683 560.611 615.752 558.321 617.216 556.287L660 496.865Z" fill="#290E02"/>
<path d="M786 474.365L845.5 484.865L738.992 496.027C733.863 496.565 729.14 499.063 725.809 502.999L714.5 516.365L660 496.865L665.23 490.888C668.613 487.022 673.354 484.605 678.471 484.14L786 474.365Z" fill="#FFF0DB"/>
<path d="M720 485.865L847.5 474.365V463.865L865 467.865V478.865L732 491.865V479.865L720 474.365V485.865Z" fill="#F7E690"/>
<path d="M720 474.365L848.5 462.865L865.5 467.865V478.365L732 492.365V479.865L720 474.365Z" fill="#F7E690"/>
<path d="M847.216 501.331L716.5 515.365L669 583.365L845.782 558.043C853.009 557.008 859.097 552.118 861.667 545.285L868.071 528.257C873.313 514.316 862.024 499.741 847.216 501.331Z" fill="#180801"/>
<g filter="url(#filter0_i_127_1229)">
<path d="M888 466.865L955.5 460.865L971.526 468.672C973.572 469.669 974.687 471.922 974.238 474.153L958 554.865L897.513 562.865L915.095 482.025C915.617 479.627 914.321 477.205 912.038 476.308L888 466.865Z" fill="#F7E690"/>
</g>
<g filter="url(#filter1_i_127_1229)">
<path d="M1140.72 444.982L1198.29 439.865L1211.8 445.121C1213.67 445.847 1214.78 447.775 1214.47 449.754L1203.5 519.865L1149 527.865L1160.91 455.46C1161.25 453.389 1160.03 451.379 1158.04 450.719L1140.72 444.982Z" fill="#F7E690"/>
</g>
<path d="M605.621 591.457L612.5 568.365L661.469 590.623C661.816 590.781 662.2 590.836 662.577 590.783L849.508 564.289C850.927 564.088 852.091 565.4 851.721 566.784L850.839 570.093C850.633 570.865 849.988 571.44 849.198 571.556L653.5 600.365L608.87 603.244C607.818 603.312 606.894 602.552 606.758 601.507L605.555 592.287C605.519 592.008 605.541 591.726 605.621 591.457Z" fill="#D4BF02"/>
<path d="M656.5 600.365L663 590.865L613 567.365L604.359 593.289C604.123 593.997 604.048 594.749 604.141 595.49L604.884 601.439C605.225 604.165 607.701 606.106 610.43 605.785L656.5 600.365Z" fill="#F7E690"/>
<path d="M720 474.365L732 479.865V492.365L720 486.865V474.365Z" fill="#D4BF02"/>
<path d="M732 479.865L865.5 467.865V479.365L732 492.365V479.865Z" fill="#DFD13A"/>
<path d="M985 449.191L1089.21 439.865L1103 443.92V452.435L994.732 463.789V453.652L985 449.191Z" fill="#F7E690"/>
<path d="M985 449.192L994.732 453.652V463.79L985 459.329V449.192Z" fill="#D4BF02"/>
<path d="M994.732 453.652L1103 443.92V453.247L994.732 463.79V453.652Z" fill="#DFD13A"/>
<path d="M1245 428.294L1328.02 420.865L1339 424.095V430.878L1252.75 439.923V431.848L1245 428.294Z" fill="#F7E690"/>
<path d="M1245 428.294L1252.75 431.848V439.923L1245 436.37V428.294Z" fill="#D4BF02"/>
<path d="M1252.75 431.848L1339 424.095V431.525L1252.75 439.923V431.848Z" fill="#DFD13A"/>
<path d="M668.979 582.638L615.5 559.365L614.591 561.183C614.531 561.304 614.482 561.431 614.448 561.562L612.5 568.865L662.471 591.129C662.817 591.283 663.199 591.336 663.573 591.282L851.103 564.067C851.94 563.946 852.611 563.31 852.777 562.48L853.445 559.139C853.716 557.785 852.566 556.571 851.2 556.767L670.062 582.784C669.695 582.837 669.32 582.786 668.979 582.638Z" fill="#FFF0DB"/>
<path d="M1070.02 479.692C1070.6 475.102 1074.24 471.504 1078.84 470.994L1139.14 464.294C1145.64 463.571 1151.08 469.193 1150.14 475.672L1146.33 501.871C1145.68 506.303 1142.17 509.766 1137.73 510.347L1077.82 518.187C1071.33 519.036 1065.79 513.525 1066.6 507.031L1070.02 479.692Z" fill="#180801"/>
<path d="M983.022 489.692C983.595 485.102 987.242 481.504 991.84 480.994L1052.14 474.294C1058.64 473.571 1064.08 479.193 1063.14 485.672L1059.33 511.871C1058.68 516.303 1055.17 519.766 1050.73 520.347L990.825 528.187C984.335 529.036 978.792 523.525 979.604 517.031L983.022 489.692Z" fill="#180801"/>
<path d="M917.776 499.007C918.687 494.65 922.368 491.419 926.806 491.082L951.923 489.17C958.599 488.663 963.879 494.731 962.453 501.272L957.521 523.888C956.611 528.061 953.15 531.196 948.907 531.69L923.783 534.613C917.003 535.402 911.442 529.316 912.838 522.635L917.776 499.007Z" fill="#180801"/>
<path d="M1165.94 472.564C1166.56 468.641 1169.8 465.661 1173.76 465.373L1197.67 463.635C1203.11 463.239 1207.52 467.975 1206.74 473.374L1203.94 492.805C1203.39 496.666 1200.29 499.659 1196.41 500.081L1172.1 502.723C1166.51 503.332 1161.86 498.459 1162.74 492.9L1165.94 472.564Z" fill="#180801"/>
<path d="M1301.56 455.145C1302.08 450.977 1305.39 447.71 1309.57 447.246L1364.32 441.162C1370.23 440.506 1375.16 445.611 1374.31 451.494L1370.85 475.284C1370.26 479.309 1367.07 482.453 1363.04 482.981L1308.65 490.099C1302.75 490.871 1297.72 485.867 1298.46 479.969L1301.56 455.145Z" fill="#180801"/>
<path d="M1222.56 464.225C1223.08 460.057 1226.39 456.79 1230.57 456.326L1285.32 450.243C1291.23 449.586 1296.16 454.691 1295.31 460.574L1291.85 484.364C1291.26 488.389 1288.07 491.533 1284.04 492.061L1229.65 499.18C1223.75 499.951 1218.72 494.947 1219.46 489.05L1222.56 464.225Z" fill="#180801"/>
<path d="M983.896 534.07C984.583 532.975 985.725 532.245 987.007 532.08L1137.8 512.663C1140.73 512.286 1143.08 515.035 1142.25 517.869C1141.8 519.429 1140.47 520.573 1138.86 520.786L988.126 540.661C984.494 541.14 981.948 537.172 983.896 534.07Z" fill="#FFF0DB"/>
<path d="M982.896 542.07C983.583 540.975 984.725 540.245 986.007 540.08L1136.8 520.663C1139.73 520.286 1142.08 523.035 1141.25 525.869C1140.8 527.429 1139.47 528.573 1137.86 528.786L987.126 548.661C983.494 549.14 980.948 545.172 982.896 542.07Z" fill="#D4BF02"/>
<path d="M1221.14 504.931C1221.67 503.365 1223.05 502.241 1224.69 502.047L1364.6 485.503C1367.16 485.2 1369.2 487.608 1368.48 490.085C1368.08 491.461 1366.9 492.469 1365.48 492.651L1225.73 510.505C1222.61 510.903 1220.15 507.91 1221.14 504.931Z" fill="#FFF0DB"/>
<path d="M1221.77 511.318C1222.24 510.708 1222.93 510.311 1223.69 510.214L1365.06 492.366C1366.86 492.138 1368.24 493.952 1367.53 495.627C1367.2 496.394 1366.49 496.933 1365.67 497.043L1224.44 515.937C1221.88 516.278 1220.2 513.359 1221.77 511.318Z" fill="#D4BF02"/>
<path d="M907.54 552.361C907.827 551.741 908.41 551.309 909.088 551.217L953.132 545.253C954.518 545.065 955.664 546.322 955.349 547.685L954.812 550.012C954.624 550.826 953.951 551.437 953.124 551.545L908.596 557.393C907.035 557.598 905.86 556.001 906.52 554.571L907.54 552.361Z" fill="#FFF0DB"/>
<path d="M908.04 545.361C908.327 544.741 908.91 544.309 909.588 544.217L953.632 538.253C955.018 538.065 956.164 539.322 955.849 540.685L955.312 543.012C955.124 543.826 954.451 544.437 953.624 544.545L909.096 550.393C907.535 550.598 906.36 549.001 907.02 547.571L908.04 545.361Z" fill="#F6CD00"/>
<path d="M1161.12 516.969C1161.36 516.45 1161.85 516.09 1162.41 516.014L1199.19 511.034C1200.35 510.877 1201.3 511.926 1201.04 513.064L1200.59 515.007C1200.43 515.686 1199.87 516.197 1199.18 516.288L1162 521.17C1160.7 521.341 1159.72 520.008 1160.27 518.814L1161.12 516.969Z" fill="#FFF0DB"/>
<path d="M1161.54 511.124C1161.78 510.606 1162.27 510.246 1162.83 510.169L1199.61 505.189C1200.76 505.032 1201.72 506.081 1201.46 507.219L1201.01 509.163C1200.85 509.842 1200.29 510.352 1199.6 510.443L1162.42 515.325C1161.12 515.496 1160.14 514.163 1160.69 512.969L1161.54 511.124Z" fill="#F6CD00"/>
<rect x="66" y="1089" width="53" height="55" rx="26.5" fill="url(#paint3_radial_127_1229)" fill-opacity="0.6"/>
<path d="M623.576 782.642H668.35C675.741 782.642 682.67 783.531 689.138 785.307C695.605 787.084 701.22 789.714 705.981 793.196C710.814 796.607 714.581 800.836 717.281 805.882C720.053 810.857 721.439 816.578 721.439 823.045C721.439 829.442 720.089 835.021 717.388 839.782C714.758 844.544 711.24 848.488 706.834 851.615C702.499 854.743 697.56 857.088 692.016 858.651C686.473 860.144 680.823 860.89 675.066 860.89C672.579 860.89 669.984 860.855 667.284 860.783C664.583 860.641 661.989 860.464 659.502 860.25C657.014 860.037 654.704 859.788 652.572 859.504C650.44 859.22 648.699 858.936 647.349 858.651V924H623.576V782.642ZM647.349 850.656C650.049 851.58 652.928 852.362 655.984 853.001C659.04 853.57 662.167 853.854 665.365 853.854C670.482 853.854 674.959 853.108 678.797 851.615C682.635 850.052 685.833 847.955 688.392 845.326C690.95 842.625 692.833 839.498 694.042 835.945C695.321 832.32 695.96 828.482 695.96 824.431C695.96 819.67 695.143 815.37 693.509 811.532C691.874 807.694 689.6 804.425 686.686 801.724C683.843 798.953 680.467 796.821 676.558 795.328C672.721 793.836 668.599 793.09 664.192 793.09H647.349V850.656ZM749.796 782.642H798.834C807.291 782.642 814.718 783.566 821.114 785.414C827.511 787.191 832.841 789.714 837.105 792.983C841.369 796.252 844.567 800.161 846.699 804.709C848.903 809.187 850.004 814.091 850.004 819.421C850.004 823.827 849.151 827.949 847.446 831.787C845.811 835.625 843.466 839.107 840.41 842.234C837.425 845.29 833.8 847.955 829.536 850.23C825.272 852.433 820.581 854.174 815.464 855.453L866.954 924H839.344L790.199 857.585H773.569V924H749.796V782.642ZM773.569 850.443H787.321C792.651 850.443 797.555 849.732 802.032 848.311C806.581 846.889 810.489 844.899 813.759 842.341C817.099 839.711 819.693 836.549 821.541 832.853C823.389 829.157 824.312 825 824.312 820.38C824.312 816.116 823.566 812.207 822.074 808.654C820.652 805.1 818.591 802.08 815.891 799.592C813.261 797.034 810.098 795.044 806.403 793.623C802.778 792.201 798.798 791.49 794.463 791.49H773.569V850.443ZM957.888 927.305C946.943 927.305 936.709 925.35 927.186 921.441C917.734 917.533 909.49 912.202 902.454 905.451C895.489 898.628 889.981 890.704 885.93 881.678C881.95 872.581 879.96 862.88 879.96 852.575C879.96 845.823 880.848 839.32 882.625 833.066C884.473 826.812 887.067 820.984 890.407 815.583C893.748 810.182 897.763 805.278 902.454 800.872C907.215 796.394 912.474 792.592 918.231 789.465C923.988 786.267 930.206 783.815 936.887 782.109C943.568 780.332 950.568 779.444 957.888 779.444C965.208 779.444 972.209 780.332 978.889 782.109C985.57 783.815 991.788 786.267 997.545 789.465C1003.37 792.592 1008.63 796.394 1013.32 800.872C1018.01 805.278 1022.03 810.182 1025.37 815.583C1028.78 820.984 1031.37 826.812 1033.15 833.066C1035 839.32 1035.92 845.823 1035.92 852.575C1035.92 859.398 1035 866.007 1033.15 872.403C1031.37 878.729 1028.78 884.663 1025.37 890.206C1022.03 895.75 1018.01 900.796 1013.32 905.344C1008.63 909.893 1003.37 913.801 997.545 917.071C991.788 920.34 985.57 922.863 978.889 924.64C972.209 926.416 965.208 927.305 957.888 927.305ZM957.888 920.269C965.99 920.269 973.133 918.599 979.316 915.258C985.57 911.847 990.829 907.121 995.093 901.08C999.357 895.039 1002.56 887.897 1004.69 879.652C1006.89 871.408 1007.99 862.383 1007.99 852.575C1007.99 842.838 1006.89 833.919 1004.69 825.817C1002.56 817.715 999.357 810.75 995.093 804.923C990.829 799.024 985.57 794.475 979.316 791.277C973.133 788.008 965.99 786.373 957.888 786.373C949.644 786.373 942.395 788.008 936.141 791.277C929.958 794.475 924.734 799.024 920.47 804.923C916.277 810.75 913.114 817.715 910.982 825.817C908.85 833.919 907.784 842.838 907.784 852.575C907.784 862.383 908.85 871.408 910.982 879.652C913.114 887.897 916.277 895.039 920.47 901.08C924.734 907.121 929.958 911.847 936.141 915.258C942.395 918.599 949.644 920.269 957.888 920.269ZM1130.16 883.597C1130.16 888.714 1129.7 893.76 1128.78 898.735C1127.85 903.71 1125.97 908.187 1123.13 912.167C1120.28 916.147 1116.23 919.38 1110.97 921.868C1105.71 924.284 1098.75 925.492 1090.08 925.492C1085.17 925.492 1080.73 925.031 1076.75 924.107C1072.84 923.183 1069.29 922.01 1066.09 920.589C1062.89 919.096 1059.98 917.426 1057.35 915.578C1054.79 913.73 1052.41 911.847 1050.21 909.928L1057.67 899.907C1059.23 901.187 1061.12 902.786 1063.32 904.705C1065.52 906.623 1067.9 908.471 1070.46 910.248C1073.09 911.954 1075.79 913.446 1078.56 914.725C1081.41 916.005 1084.25 916.644 1087.09 916.644C1093.35 916.644 1098.11 915.01 1101.38 911.74C1104.72 908.471 1106.39 904.065 1106.39 898.521V782.642H1130.16V883.597ZM1264.7 782.642V791.81H1190.18V842.341H1240.07V851.509H1190.18V914.832H1264.7V924H1166.41V782.642H1264.7ZM1315.01 853.854C1315.01 863.733 1316.51 872.617 1319.49 880.505C1322.48 888.323 1326.56 894.968 1331.75 900.44C1337.01 905.842 1343.19 909.999 1350.3 912.913C1357.41 915.756 1365.12 917.177 1373.43 917.177C1378.41 917.177 1383.2 916.218 1387.82 914.299C1392.44 912.38 1396.71 909.893 1400.62 906.837C1404.6 903.71 1408.15 900.227 1411.28 896.389C1414.4 892.481 1416.96 888.536 1418.95 884.556L1428.97 890.953C1426.06 895.714 1422.61 900.298 1418.63 904.705C1414.65 909.04 1410.03 912.913 1404.77 916.324C1399.59 919.665 1393.69 922.33 1387.08 924.32C1380.54 926.31 1373.22 927.305 1365.12 927.305C1353.39 927.305 1342.73 925.35 1333.14 921.441C1323.61 917.533 1315.44 912.238 1308.62 905.557C1301.79 898.877 1296.5 891.095 1292.73 882.211C1289.04 873.256 1287.19 863.804 1287.19 853.854C1287.19 847.245 1288.04 840.813 1289.75 834.559C1291.45 828.234 1293.91 822.335 1297.1 816.862C1300.37 811.319 1304.32 806.273 1308.94 801.724C1313.63 797.105 1318.89 793.161 1324.71 789.891C1330.61 786.551 1337.05 783.993 1344.01 782.216C1350.97 780.368 1358.4 779.444 1366.29 779.444C1373.82 779.444 1380.75 780.475 1387.08 782.536C1393.47 784.526 1399.27 787.191 1404.45 790.531C1409.71 793.871 1414.37 797.745 1418.42 802.151C1422.54 806.486 1426.06 811.035 1428.97 815.796L1418.63 822.619C1412.73 811.177 1406.12 802.826 1398.8 797.567C1391.48 792.237 1383.06 789.572 1373.54 789.572C1365.37 789.572 1357.73 791.064 1350.62 794.049C1343.51 797.034 1337.29 801.298 1331.96 806.842C1326.7 812.385 1322.55 819.137 1319.49 827.096C1316.51 834.985 1315.01 843.904 1315.01 853.854ZM1573.21 782.642V791.81H1522.04V924H1498.27V791.81H1447.1V782.642H1573.21ZM1642.72 918.35C1646.2 918.35 1649.65 917.888 1653.06 916.964C1656.47 915.969 1659.52 914.548 1662.22 912.7C1664.93 910.781 1667.09 908.471 1668.73 905.771C1670.36 902.999 1671.18 899.801 1671.18 896.176C1671.18 891.841 1670.04 888.003 1667.77 884.663C1665.57 881.252 1662.65 878.16 1659.03 875.388C1655.4 872.545 1651.24 869.88 1646.55 867.393C1641.93 864.905 1637.21 862.418 1632.38 859.931C1627.54 857.443 1622.78 854.849 1618.09 852.148C1613.47 849.377 1609.35 846.321 1605.72 842.98C1602.1 839.569 1599.15 835.802 1596.88 831.68C1594.67 827.487 1593.57 822.69 1593.57 817.289C1593.57 811.887 1594.57 806.877 1596.56 802.258C1598.62 797.638 1601.6 793.658 1605.51 790.318C1609.42 786.906 1614.22 784.241 1619.9 782.322C1625.66 780.404 1632.23 779.444 1639.62 779.444C1646.31 779.444 1652.28 780.155 1657.53 781.576C1662.79 782.998 1667.41 785.094 1671.39 787.866C1675.37 790.638 1678.75 794.049 1681.52 798.1C1684.29 802.151 1686.53 806.842 1688.24 812.172L1676.08 817.715C1674.66 813.38 1672.85 809.436 1670.65 805.882C1668.44 802.258 1665.81 799.166 1662.76 796.607C1659.7 794.049 1656.15 792.095 1652.1 790.744C1648.12 789.323 1643.6 788.612 1638.56 788.612C1634.08 788.612 1630.17 789.252 1626.83 790.531C1623.49 791.739 1620.68 793.374 1618.41 795.435C1616.21 797.425 1614.54 799.699 1613.4 802.258C1612.33 804.745 1611.8 807.303 1611.8 809.933C1611.8 813.629 1612.94 817.04 1615.21 820.167C1617.49 823.223 1620.51 826.137 1624.27 828.909C1628.04 831.609 1632.3 834.239 1637.07 836.797C1641.9 839.356 1646.8 841.95 1651.78 844.58C1656.75 847.209 1661.62 849.945 1666.38 852.788C1671.22 855.631 1675.51 858.758 1679.28 862.169C1683.05 865.51 1686.07 869.205 1688.34 873.256C1690.62 877.236 1691.75 881.713 1691.75 886.688C1691.75 892.303 1690.69 897.598 1688.56 902.572C1686.42 907.476 1683.23 911.776 1678.96 915.472C1674.7 919.096 1669.4 921.975 1663.08 924.107C1656.75 926.239 1649.4 927.305 1641.01 927.305C1634.19 927.305 1628.11 926.559 1622.78 925.066C1617.45 923.574 1612.72 921.406 1608.6 918.563C1604.55 915.72 1601.07 912.273 1598.16 908.223C1595.24 904.1 1592.86 899.41 1591.01 894.151L1603.7 888.927C1605.19 893.547 1607.18 897.669 1609.67 901.293C1612.23 904.918 1615.18 908.009 1618.52 910.568C1621.86 913.055 1625.55 914.974 1629.6 916.324C1633.73 917.675 1638.1 918.35 1642.72 918.35Z" fill="white"/>
</g>
<defs>
<filter id="filter0_i_127_1229" x="888" y="460.865" width="86.3364" height="106" filterUnits="userSpaceOnUse" color-interpolation-filters="sRGB">
<feFlood flood-opacity="0" result="BackgroundImageFix"/>
<feBlend mode="normal" in="SourceGraphic" in2="BackgroundImageFix" result="shape"/>
<feColorMatrix in="SourceAlpha" type="matrix" values="0 0 0 0 0 0 0 0 0 0 0 0 0 0 0 0 0 0 127 0" result="hardAlpha"/>
<feOffset dy="4"/>
<feGaussianBlur stdDeviation="5"/>
<feComposite in2="hardAlpha" operator="arithmetic" k2="-1" k3="1"/>
<feColorMatrix type="matrix" values="0 0 0 0 0.885034 0 0 0 0 0.70106 0 0 0 0 0.0359223 0 0 0 1 0"/>
<feBlend mode="normal" in2="shape" result="effect1_innerShadow_127_1229"/>
</filter>
<filter id="filter1_i_127_1229" x="1140.72" y="439.865" width="73.8005" height="91.4118" filterUnits="userSpaceOnUse" color-interpolation-filters="sRGB">
<feFlood flood-opacity="0" result="BackgroundImageFix"/>
<feBlend mode="normal" in="SourceGraphic" in2="BackgroundImageFix" result="shape"/>
<feColorMatrix in="SourceAlpha" type="matrix" values="0 0 0 0 0 0 0 0 0 0 0 0 0 0 0 0 0 0 127 0" result="hardAlpha"/>
<feOffset dy="3.41176"/>
<feGaussianBlur stdDeviation="4.26471"/>
<feComposite in2="hardAlpha" operator="arithmetic" k2="-1" k3="1"/>
<feColorMatrix type="matrix" values="0 0 0 0 0.886275 0 0 0 0 0.701961 0 0 0 0 0.0352941 0 0 0 1 0"/>
<feBlend mode="normal" in2="shape" result="effect1_innerShadow_127_1229"/>
</filter>
<linearGradient id="paint0_linear_127_1229" x1="864" y1="0" x2="864" y2="1117" gradientUnits="userSpaceOnUse">
<stop stop-color="#6FCFF7"/>
<stop offset="1" stop-color="#00498D"/>
</linearGradient>
<linearGradient id="paint1_linear_127_1229" x1="978" y1="-171.5" x2="1001.5" y2="336" gradientUnits="userSpaceOnUse">
<stop offset="0.405" stop-color="#FFF5C3"/>
<stop offset="1" stop-color="#B2F8FD"/>
</linearGradient>
<linearGradient id="paint2_linear_127_1229" x1="1323.5" y1="51.5" x2="1361.5" y2="415.5" gradientUnits="userSpaceOnUse">
<stop stop-color="#D6F9E3" stop-opacity="0.14"/>
<stop offset="1" stop-color="#3A8EC4"/>
</linearGradient>
<radialGradient id="paint3_radial_127_1229" cx="0" cy="0" r="1" gradientUnits="userSpaceOnUse" gradientTransform="translate(92.5 1116.5) rotate(90) scale(27.5 26.5)">
<stop offset="0.02" stop-color="#83B2DC"/>
<stop offset="1" stop-color="#CCE7FF"/>
</radialGradient>
<clipPath id="clip0_127_1229">
<rect width="1728" height="1117" fill="white"/>
</clipPath>
</defs>
</svg>
